<svg xmlns="http://www.w3.org/2000/svg" viewBox="0 0 32 32">
  <!-- Navy rounded background -->
  <rect width="32" height="32" rx="7" fill="#1e3a5f"/>

  <!-- Left page -->
  <path d="M4 22.5 L4 10 C4 8.3 5.3 7 7 7 L15 7.8 L15 25.5 C11.5 24.8 6.5 25 4.8 25.8 C4.2 25.5 4 24 4 22.5Z" fill="white"/>

  <!-- Right page -->
  <path d="M28 22.5 L28 10 C28 8.3 26.7 7 25 7 L17 7.8 L17 25.5 C20.5 24.8 25.5 25 27.2 25.8 C27.8 25.5 28 24 28 22.5Z" fill="white"/>

  <!-- Spine -->
  <rect x="14.2" y="7" width="3.6" height="19" rx="0.8" fill="#f5a623"/>

  <!-- Lines on left page -->
  <line x1="6.5" y1="13" x2="12.5" y2="13" stroke="#1e3a5f" stroke-width="1.4" stroke-linecap="round" opacity="0.6"/>
  <line x1="6.5" y1="16.5" x2="12.5" y2="16.5" stroke="#1e3a5f" stroke-width="1.4" stroke-linecap="round" opacity="0.6"/>
  <line x1="6.5" y1="20" x2="10.5" y2="20" stroke="#1e3a5f" stroke-width="1.4" stroke-linecap="round" opacity="0.6"/>

  <!-- Lines on right page -->
  <line x1="19.5" y1="13" x2="25.5" y2="13" stroke="#1e3a5f" stroke-width="1.4" stroke-linecap="round" opacity="0.6"/>
  <line x1="19.5" y1="16.5" x2="25.5" y2="16.5" stroke="#1e3a5f" stroke-width="1.4" stroke-linecap="round" opacity="0.6"/>
  <line x1="19.5" y1="20" x2="23.5" y2="20" stroke="#1e3a5f" stroke-width="1.4" stroke-linecap="round" opacity="0.6"/>
</svg>
